:FULLY-SPECIFIED
:DEGREES
356
root 0.0164348 15.7136 -2.99105 855.611 -84.2264 -847.865
lowerback 2.5857 3.56908 -0.303064
upperback -2.65678 4.7849 1.23082
thorax -4.31771 2.40183 1.1332
lowerneck -17.4763 -0.482986 1.86004
upperneck 19.2593 -0.603785 -2.98996
head 8.90107 -0.514891 -1.41046
rclavicle 1.51076e-014 -2.5842e-015
rhumerus -17.1347 2.14595 -91.4669
rradius 36.8714
rwrist -4.93159
rhand -30.3465 -18.2138
rfingers 7.12502
rthumb -3.65206 -48.1622
lclavicle 1.51076e-014 -2.5842e-015
lhumerus -37.84 7.36159 87.9257
lradius 16.4641
lwrist -4.36642
lhand -29.1413 15.9774
lfingers 7.12502
lthumb -2.48822 45.9426
rfemur 15.6731 3.8605 29.7829
rtibia 4.77083e-014
rfoot -7.97464 -8.60671
rtoes -23.5794
lfemur -34.6121 -11.2666 -11.816
ltibia 23.7099
lfoot -13.5232 15.2467
ltoes -13.6182
357
root -0.0161737 15.6959 -2.96486 858.499 -83.94 -850.822
lowerback 2.46738 3.61728 -0.395718
upperback -2.66867 4.84386 1.21053
thorax -4.27069 2.43389 1.16722
lowerneck -17.4451 -0.451999 1.84053
upperneck 19.441 -0.587111 -2.85588
head 8.9589 -0.495462 -1.36158
rclavicle -1.74931e-014 -6.16232e-015
rhumerus -17.4994 1.69308 -91.5524
rradius 35.9851
rwrist -4.74861
rhand -30.43 -18.1404
rfingers 7.12502
rthumb -3.73275 -48.0874
lclavicle -1.74931e-014 -6.16232e-015
lhumerus -37.6247 7.03625 88.0523
lradius 16.3784
lwrist -4.3763
lhand -29.2336 15.9541
lfingers 7.12502
lthumb -2.57731 45.9183
rfemur 16.4101 3.90412 29.5309
rtibia -3.49861e-014
rfoot -7.52053 -8.25438
rtoes -24.473
lfemur -33.8613 -10.2701 -12.4844
ltibia 24.2175
lfoot -12.1916 14.1471
ltoes -12.789
358
root -0.0537619 15.7021 -2.93749 861.658 -83.6466 -854.159
lowerback 2.43459 3.68702 -0.56998
upperback -2.63515 4.92936 1.20083
thorax -4.23381 2.48187 1.25143
lowerneck -17.5016 -0.455251 1.9088
upperneck 19.6421 -0.605301 -2.88784
head 9.03752 -0.504467 -1.38937
rclavicle -8.26944e-014 7.15625e-015
rhumerus -17.949 1.43977 -91.6067
rradius 35.1669
rwrist -4.89127
rhand -30.7092 -17.938
rfingers 7.12502
rthumb -4.00236 -47.8802
lclavicle -8.26944e-014 7.15625e-015
lhumerus -37.3814 6.84548 88.1579
lradius 16.3657
lwrist -4.47735
lhand -29.2529 15.8675
lfingers 7.12502
lthumb -2.59599 45.8315
rfemur 17.2324 3.98003 29.1811
rtibia 6.04305e-014
rfoot -6.92855 -7.81032
rtoes -25.6848
lfemur -33.3852 -10.2077 -12.7057
ltibia 24.7155
lfoot -10.4064 14.7941
ltoes -12.9491
359
root -0.0907415 15.6946 -2.91018 865.953 -83.5228 -858.695
lowerback 2.48861 3.73144 -1.01011
upperback -2.61353 4.96789 1.11462
thorax -4.27363 2.51377 1.40034
lowerneck -17.5278 -0.43319 1.92172
upperneck 19.8743 -0.603382 -2.78907
head 9.12286 -0.493792 -1.36081
rclavicle -3.4191e-014 -6.75868e-015
rhumerus -18.4198 1.05606 -91.6877
rradius 34.2611
rwrist -4.99327
rhand -31.0355 -17.7546
rfingers 7.12502
rthumb -4.31739 -47.6906
lclavicle -3.4191e-014 -6.75868e-015
lhumerus -37.1346 6.36468 88.3836
lradius 16.3596
lwrist -4.31291
lhand -29.3027 15.8743
lfingers 7.12502
lthumb -2.64408 45.8376
rfemur 18.1472 4.00286 28.5577
rtibia 2.8625e-014
rfoot -6.19427 -7.33064
rtoes -27.1614
lfemur -33.0076 -10.5107 -13.0368
ltibia 25.1205
lfoot -8.97506 15.4545
ltoes -14.0151
360
root -0.126278 15.6922 -2.885 871.202 -83.5026 -864.07
lowerback 2.48304 3.76696 -1.62666
upperback -2.67342 4.98371 0.960886
thorax -4.3737 2.53938 1.57957
lowerneck -17.489 -0.440939 1.81687
upperneck 20.1019 -0.644074 -2.54589
head 9.19507 -0.495698 -1.26782
rclavicle -7.31528e-014 -2.56432e-014
rhumerus -19.0433 0.362995 -91.7767
rradius 33.3398
rwrist -4.73115
rhand -31.3709 -17.6566
rfingers 7.12502
rthumb -4.64132 -47.5858
lclavicle -7.31528e-014 -2.56432e-014
lhumerus -36.9467 6.05544 88.4598
lradius 16.3484
lwrist -4.44493
lhand -29.4717 15.8689
lfingers 7.12502
lthumb -2.80729 45.8302
rfemur 18.8533 3.98766 27.7346
rtibia 0
rfoot -5.17321 -6.9941
rtoes -28.257
lfemur -32.4289 -9.56715 -14.059
ltibia 25.4367
lfoot -7.50145 14.7475
ltoes -13.5322
